# Blender 4.1.1
# www.blender.org
o Ğ¯Ñ‰Ğ¸Ğº
v -0.949998 -1.050069 0.949998
v -0.949998 -0.949998 1.050069
v -1.050069 -0.949998 0.949998
v -0.949998 0.949998 1.050069
v -0.949998 1.050069 0.949998
v -1.050069 0.949998 0.949998
v -0.949998 -1.050069 -0.949998
v -1.050069 -0.949998 -0.949998
v -0.949998 -0.949998 -1.050069
v -0.949998 1.050069 -0.949998
v -0.949998 0.949998 -1.050069
v -1.050069 0.949998 -0.949998
v 0.949998 -1.050069 0.949998
v 1.050069 -0.949998 0.949998
v 0.949998 -0.949998 1.050069
v 0.949998 1.050069 0.949998
v 0.949998 0.949998 1.050069
v 1.050069 0.949998 0.949998
v 0.949998 -1.050069 -0.949998
v 0.949998 -0.949998 -1.050069
v 1.050069 -0.949998 -0.949998
v 0.949998 1.050069 -0.949998
v 1.050069 0.949998 -0.949998
v 0.949998 0.949998 -1.050069
v -1.050069 -1.042998 1.042998
v -1.050069 -1.042998 -1.042998
v -1.050069 1.042998 1.042998
v -1.050069 1.042998 -1.042998
v 1.050069 1.042998 -1.042998
v 1.050069 -1.042998 -1.042998
v 1.050069 -1.042998 1.042998
v 1.050069 1.042998 1.042998
v -1.042998 -1.042998 1.050069
v -1.042998 1.042998 1.050069
v -1.042998 1.042998 -1.050069
v -1.042998 -1.042998 -1.050069
v 1.042998 -1.042998 -1.050069
v 1.042998 1.042998 -1.050069
v 1.042998 1.042998 1.050069
v 1.042998 -1.042998 1.050069
v -1.042998 -1.050069 -1.042998
v -1.042998 -1.050069 1.042998
v -1.042998 1.050069 1.042998
v -1.042998 1.050069 -1.042998
v 1.042998 -1.050069 -1.042998
v 1.042998 1.050069 -1.042998
v 1.042998 -1.050069 1.042998
v 1.042998 1.050069 1.042998
v -1.000000 -0.949998 0.949998
v -1.000000 -0.949998 -0.949998
v -1.000000 0.949998 0.949998
v -1.000000 0.949998 -0.949998
v 1.000069 0.949998 -0.949998
v 1.000069 -0.949998 -0.949998
v 1.000069 -0.949998 0.949998
v 1.000069 0.949998 0.949998
v -0.949998 -0.949998 1.000069
v -0.949998 0.949998 1.000069
v 0.949998 0.949998 1.000069
v 0.949998 -0.949998 1.000069
v -0.949998 0.949998 -1.000069
v -0.949998 -0.949998 -1.000069
v 0.949998 -0.949998 -1.000069
v 0.949998 0.949998 -1.000069
v -0.949998 1.000069 0.949998
v -0.949998 1.000069 -0.949998
v 0.949998 1.000069 -0.949998
v 0.949998 1.000069 0.949998
v -0.949998 -1.000069 -0.949998
v -0.949998 -1.000069 0.949998
v 0.949998 -1.000069 -0.949998
v 0.949998 -1.000069 0.949998
vn -0.0000 1.0000 -0.0000
vn -0.0000 -1.0000 -0.0000
vn -0.0000 -0.0000 -1.0000
vn 1.0000 -0.0000 -0.0000
vn -0.5774 -0.5774 0.5774
vn -0.5774 0.5774 0.5774
vn -0.5774 -0.5774 -0.5774
vn -0.5774 0.5774 -0.5774
vn 0.5774 -0.5774 0.5774
vn 0.5774 0.5774 0.5774
vn 0.5774 -0.5774 -0.5774
vn 0.5774 0.5774 -0.5774
vn -0.7071 -0.7071 -0.0000
vn -0.7071 -0.0000 0.7071
vn -0.7071 0.7071 -0.0000
vn -0.7071 -0.0000 -0.7071
vn -0.0000 -0.7071 -0.7071
vn -0.0000 0.7071 -0.7071
vn 0.7071 -0.0000 -0.7071
vn 0.7071 -0.7071 -0.0000
vn 0.7071 0.7071 -0.0000
vn 0.7071 -0.0000 0.7071
vn -0.0000 -0.7071 0.7071
vn -0.0000 0.7071 0.7071
vn -1.0000 -0.0000 -0.0000
vn -0.0000 -0.0000 1.0000
vt 0.094960 0.653277
vt 0.094960 0.354823
vt 0.102814 0.354823
vt 0.102814 0.653277
vt 0.117216 0.354823
vt 0.117216 0.653277
vt 0.109362 0.653277
vt 0.109362 0.354823
vt 0.369392 0.276381
vt 0.070938 0.276381
vt 0.070938 0.268527
vt 0.369392 0.268527
vt 0.011139 0.019243
vt 0.011139 0.317697
vt 0.003274 0.317697
vt 0.003274 0.019243
vt 0.072298 0.041927
vt 0.370752 0.041927
vt 0.370752 0.049781
vt 0.072298 0.049781
vt 0.026533 0.003274
vt 0.027318 0.004634
vt 0.025748 0.004634
vt 0.027318 0.332306
vt 0.026533 0.333666
vt 0.025748 0.332306
vt 0.056329 0.026533
vt 0.057689 0.025748
vt 0.057689 0.027318
vt 0.386721 0.026533
vt 0.385361 0.027318
vt 0.385361 0.025748
vt 0.056329 0.079577
vt 0.057689 0.078792
vt 0.057689 0.080362
vt 0.386721 0.079577
vt 0.385361 0.080362
vt 0.385361 0.078792
vt 0.056329 0.132621
vt 0.057689 0.131836
vt 0.057689 0.133407
vt 0.386721 0.132621
vt 0.385361 0.133407
vt 0.385361 0.131836
vt 0.384001 0.186462
vt 0.056329 0.186462
vt 0.056329 0.184891
vt 0.384001 0.184891
vt 0.384000 0.239517
vt 0.056329 0.239517
vt 0.056329 0.237946
vt 0.384000 0.237946
vt 0.237913 0.667886
vt 0.237913 0.340214
vt 0.239484 0.340214
vt 0.239484 0.667886
vt 0.025737 0.667886
vt 0.025737 0.340214
vt 0.027307 0.340214
vt 0.027308 0.667886
vt 0.184869 0.667886
vt 0.184869 0.340214
vt 0.186440 0.340214
vt 0.186440 0.667886
vt 0.133396 0.340214
vt 0.133396 0.667886
vt 0.131825 0.667886
vt 0.131825 0.340214
vt 0.078781 0.667886
vt 0.078781 0.340214
vt 0.080352 0.340214
vt 0.080352 0.667886
vt 0.056329 0.290990
vt 0.384001 0.290990
vt 0.384001 0.292561
vt 0.056329 0.292561
vt 0.170261 0.354823
vt 0.170261 0.653277
vt 0.162406 0.653277
vt 0.162406 0.354823
vt 0.070938 0.170282
vt 0.369392 0.170282
vt 0.070938 0.223337
vt 0.369392 0.223337
vt 0.072298 0.011139
vt 0.370752 0.011139
vt 0.370752 0.148015
vt 0.072298 0.148015
vt 0.201049 0.354823
vt 0.201049 0.653277
vt 0.072298 0.064183
vt 0.370752 0.064183
vt 0.041927 0.019243
vt 0.041927 0.317697
vt 0.254093 0.354823
vt 0.254093 0.653277
vt 0.041916 0.354823
vt 0.041916 0.653277
vt 0.072298 0.117227
vt 0.370752 0.117227
vt 0.370752 0.094971
vt 0.072298 0.094971
vt 0.369392 0.307169
vt 0.070938 0.307169
vt 0.369392 0.201070
vt 0.070938 0.201070
vt 0.369392 0.254125
vt 0.070938 0.254125
vt 0.223305 0.653277
vt 0.223305 0.354823
vt 0.011128 0.653277
vt 0.011128 0.354823
vt 0.148004 0.354823
vt 0.148004 0.653277
vt 0.064172 0.653277
vt 0.064172 0.354823
vt 0.996726 0.003274
vt 0.996726 0.301728
vt 0.698272 0.301728
vt 0.698272 0.003274
vt 0.070938 0.215472
vt 0.369392 0.215472
vt 0.070938 0.162417
vt 0.369392 0.162417
vt 0.072298 0.003274
vt 0.370752 0.003274
vt 0.691724 0.308276
vt 0.691724 0.606731
vt 0.393269 0.606731
vt 0.393269 0.308276
vt 0.370752 0.155869
vt 0.072298 0.155869
vt 0.072298 0.056329
vt 0.370752 0.056329
vt 0.208903 0.354823
vt 0.208903 0.653277
vt 0.003274 0.674434
vt 0.301728 0.674434
vt 0.301728 0.972888
vt 0.003274 0.972888
vt 0.049781 0.019243
vt 0.049781 0.317697
vt 0.369392 0.315023
vt 0.070938 0.315023
vt 0.370752 0.102825
vt 0.072298 0.102825
vt 0.996726 0.308276
vt 0.996726 0.606731
vt 0.698272 0.606731
vt 0.698272 0.308276
vt 0.072298 0.109373
vt 0.370752 0.109373
vt 0.261947 0.354823
vt 0.261947 0.653277
vt 0.049770 0.354823
vt 0.049770 0.653277
vt 0.691724 0.003274
vt 0.691724 0.301728
vt 0.393269 0.301728
vt 0.393269 0.003274
vt 0.155858 0.354823
vt 0.155859 0.653277
vt 0.003274 0.653277
vt 0.003274 0.354823
vt 0.369392 0.261979
vt 0.070938 0.261979
vt 0.606731 0.674434
vt 0.606731 0.972888
vt 0.308276 0.972888
vt 0.308276 0.674434
vt 0.215451 0.653277
vt 0.215451 0.354823
vt 0.369392 0.208924
vt 0.070938 0.208924
vt 0.056318 0.653277
vt 0.056318 0.354823
s 0
f 2/1/1 15/2/1 60/3/1 57/4/1
f 23/5/2 18/6/2 56/7/2 53/8/2
f 5/9/3 16/10/3 68/11/3 65/12/3
f 3/13/3 6/14/3 51/15/3 49/16/3
f 9/17/4 11/18/4 61/19/4 62/20/4
f 42/21/5 33/22/5 25/23/5
f 34/24/6 43/25/6 27/26/6
f 41/27/7 26/28/7 36/29/7
f 44/30/8 35/31/8 28/32/8
f 47/33/9 31/34/9 40/35/9
f 48/36/10 39/37/10 32/38/10
f 45/39/11 37/40/11 30/41/11
f 46/42/12 29/43/12 38/44/12
f 41/45/13 42/46/13 25/47/13 26/48/13
f 33/22/14 34/24/14 27/26/14 25/23/14
f 43/49/15 44/50/15 28/51/15 27/52/15
f 35/31/16 36/29/16 26/28/16 28/32/16
f 45/53/17 41/54/17 36/55/17 37/56/17
f 44/57/18 46/58/18 38/59/18 35/60/18
f 29/43/19 30/41/19 37/40/19 38/44/19
f 47/61/20 45/62/20 30/63/20 31/64/20
f 46/65/21 48/66/21 32/67/21 29/68/21
f 39/37/22 40/35/22 31/34/22 32/38/22
f 42/69/23 47/70/23 40/71/23 33/72/23
f 48/73/24 43/74/24 34/75/24 39/76/24
f 19/77/25 13/78/25 72/79/25 71/80/25
f 3/81/25 8/82/25 26/48/25 25/47/25
f 6/14/25 3/13/25 25/23/25 27/26/25
f 12/83/25 6/84/25 27/52/25 28/51/25
f 8/85/25 12/86/25 28/32/25 26/28/25
f 23/87/4 21/88/4 30/41/4 29/43/4
f 21/89/4 14/90/4 31/64/4 30/63/4
f 18/6/4 23/5/4 29/68/4 32/67/4
f 14/91/4 18/92/4 32/38/4 31/34/4
f 2/93/26 4/94/26 34/24/26 33/22/26
f 11/18/3 9/17/3 36/29/3 35/31/3
f 9/95/3 20/96/3 37/56/3 36/55/3
f 24/97/3 11/98/3 35/60/3 38/59/3
f 20/99/3 24/100/3 38/44/3 37/40/3
f 17/101/26 15/102/26 40/35/26 39/37/26
f 15/2/26 2/1/26 33/72/26 40/71/26
f 4/103/26 17/104/26 39/76/26 34/75/26
f 7/105/2 1/106/2 42/46/2 41/45/2
f 5/107/1 10/108/1 44/50/1 43/49/1
f 19/109/2 7/110/2 41/54/2 45/53/2
f 10/111/1 22/112/1 46/58/1 44/57/1
f 13/78/2 19/77/2 45/62/2 47/61/2
f 22/113/1 16/114/1 48/66/1 46/65/1
f 1/115/2 13/116/2 47/70/2 42/69/2
f 16/10/1 5/9/1 43/74/1 48/73/1
f 49/117/25 51/118/25 52/119/25 50/120/25
f 6/84/2 12/83/2 52/121/2 51/122/2
f 8/82/1 3/81/1 49/123/1 50/124/1
f 12/86/26 8/85/26 50/125/26 52/126/26
f 54/127/4 53/128/4 56/129/4 55/130/4
f 21/88/26 23/87/26 53/131/26 54/132/26
f 18/92/3 14/91/3 55/133/3 56/134/3
f 14/90/1 21/89/1 54/135/1 55/136/1
f 60/137/26 59/138/26 58/139/26 57/140/26
f 4/94/4 2/93/4 57/141/4 58/142/4
f 17/104/2 4/103/2 58/143/2 59/144/2
f 15/102/25 17/101/25 59/145/25 60/146/25
f 62/147/3 61/148/3 64/149/3 63/150/3
f 24/100/25 20/99/25 63/151/25 64/152/25
f 20/96/1 9/95/1 62/153/1 63/154/1
f 11/98/2 24/97/2 64/155/2 61/156/2
f 67/157/1 66/158/1 65/159/1 68/160/1
f 16/114/25 22/113/25 67/161/25 68/162/25
f 22/112/26 10/111/26 66/163/26 67/164/26
f 10/108/4 5/107/4 65/165/4 66/166/4
f 69/167/2 71/168/2 72/169/2 70/170/2
f 7/110/26 19/109/26 71/171/26 69/172/26
f 1/106/4 7/105/4 69/173/4 70/174/4
f 13/116/3 1/115/3 70/175/3 72/176/3
